<svg xmlns="http://www.w3.org/2000/svg" xmlns:xlink="http://www.w3.org/1999/xlink" viewBox="0 0 350 297">
  <defs>
    <style>
      .cls-1 {
        fill: #272727;
        opacity: 0.905;
      }

      .cls-2 {
        fill: #8bc34a;
      }

      .cls-10, .cls-2 {
        opacity: 0.738;
      }

      .cls-12, .cls-3, .cls-4, .cls-5, .cls-8 {
        fill: #fff;
      }

      .cls-3 {
        font-size: 48px;
        font-family: Helvetica-Light, Helvetica;
        font-weight: 300;
      }

      .cls-3, .cls-4, .cls-8 {
        letter-spacing: 0.02em;
      }

      .cls-4 {
        font-size: 11px;
        opacity: 0.5;
      }

      .cls-12, .cls-4, .cls-5, .cls-8 {
        font-family: Helvetica;
      }

      .cls-12, .cls-5 {
        font-size: 10px;
      }

      .cls-5 {
        letter-spacing: 0.15em;
      }

      .cls-6 {
        fill: #8b8b8b;
      }

      .cls-7, .cls-9 {
        fill: none;
        stroke: #707070;
      }

      .cls-7 {
        opacity: 0.486;
      }

      .cls-8 {
        font-size: 14px;
      }

      .cls-10 {
        fill: #212121;
      }

      .cls-11 {
        fill: #431c60;
      }

      .cls-12 {
        letter-spacing: 0.1em;
      }

      .cls-13 {
        filter: url(#Rectangle_1519);
      }
    </style>
    <filter id="Rectangle_1519" x="0" y="0" width="350" height="297" filterUnits="userSpaceOnUse">
      <feOffset input="SourceAlpha"/>
      <feGaussianBlur stdDeviation="3" result="blur"/>
      <feFlood flood-opacity="0.525"/>
      <feComposite operator="in" in2="blur"/>
      <feComposite in="SourceGraphic"/>
    </filter>
  </defs>
  <g id="Boarding_Pass" data-name="Boarding Pass" transform="translate(-26 -1353)">
    <g class="cls-13" transform="matrix(1, 0, 0, 1, 26, 1353)">
      <rect id="Rectangle_1519-2" data-name="Rectangle 1519" class="cls-1" width="332" height="279" rx="2" transform="translate(9 9)"/>
    </g>
    <path id="Rectangle_1520" data-name="Rectangle 1520" class="cls-2" d="M2,0H166a0,0,0,0,1,0,0V32a0,0,0,0,1,0,0H0a0,0,0,0,1,0,0V2A2,2,0,0,1,2,0Z" transform="translate(34 1362)"/>
    <text id="SFO" class="cls-3" transform="translate(46 1409)"><tspan x="0" y="37">SFO</tspan></text>
    <text id="Charlottee_USA" data-name="Charlottee, USA" class="cls-4" transform="translate(236 1469)"><tspan x="28.439" y="8">Charlottee, USA</tspan></text>
    <g id="Boarding_Sign" data-name="Boarding Sign" transform="translate(22 1181.868)">
      <text id="ON_TIME" data-name="ON TIME" class="cls-5" transform="translate(24 190.132)"><tspan x="47.255" y="8">ON TIME</tspan></text>
    </g>
    <g id="Travel" transform="translate(208.887 1105.081) rotate(45)">
      <g id="Symbol_6_3" data-name="Symbol 6 – 3">
        <path id="Path_262" data-name="Path 262" class="cls-6" d="M23.4.6A3.145,3.145,0,0,0,21.75,0,4.619,4.619,0,0,0,19.8.45,11.188,11.188,0,0,0,18,1.5a5.272,5.272,0,0,0-1.35,1.05,7.832,7.832,0,0,0-1.8,1.95L5.1,1.65c-.3,0-.45-.15-.9,0a1.146,1.146,0,0,0-.75.3L2.4,3.15c-.3.15-.3.3-.3.6s.15.45.45.6l8.1,5.25c-.15.3-1.05,1.2-2.4,2.85L3.3,11.7a1.813,1.813,0,0,0-1.5.45L.15,13.95A.551.551,0,0,0,0,14.4q0,.225.45.45l5.7,1.95A1.482,1.482,0,0,1,7.2,17.85l1.95,5.7q.225.45.45.45a.551.551,0,0,0,.45-.15L11.7,22.2a1.439,1.439,0,0,0,.45-1.5l-.75-4.95c.15-.15,1.05-.9,2.85-2.25l5.25,8.1a2.071,2.071,0,0,0,.6.45c.3,0,.45,0,.6-.15l1.2-1.2a1.146,1.146,0,0,0,.3-.75v-.9l-2.7-9.9a17.959,17.959,0,0,0,2.1-1.8A7.269,7.269,0,0,0,22.95,5.4a7.385,7.385,0,0,0,.9-2.55A2.354,2.354,0,0,0,23.4.6Z" transform="translate(215 228.988)"/>
      </g>
    </g>
    <text id="CLT" class="cls-3" transform="translate(232 1409)"><tspan x="29.464" y="37">CLT</tspan></text>
    <text id="San_Francisco_USA" data-name="San Francisco, USA" class="cls-4" transform="translate(47 1469)"><tspan x="0" y="8">San Francisco, USA</tspan></text>
    <line id="Line_9" data-name="Line 9" class="cls-7" x2="301" transform="translate(47.5 1500.5)"/>
    <text id="FLIGHT" class="cls-4" transform="translate(47 1522.367)"><tspan x="30.846" y="8">FLIGHT</tspan></text>
    <text id="SEAT" class="cls-4" transform="translate(144.693 1522.367)"><tspan x="36.662" y="8">SEAT</tspan></text>
    <text id="GATE" class="cls-4" transform="translate(246.596 1522.367)"><tspan x="36.053" y="8">GATE</tspan></text>
    <text id="AA1783" class="cls-8" transform="translate(47 1540.367)"><tspan x="25.342" y="11">AA1783</tspan></text>
    <text id="_20E" data-name="20E" class="cls-8" transform="translate(144.693 1540.367)"><tspan x="38.217" y="11">20E</tspan></text>
    <text id="_45B_" data-name="45B
" class="cls-8" transform="translate(246.596 1540.367)"><tspan x="38.217" y="11">45B</tspan></text>
    <line id="Line_10" data-name="Line 10" class="cls-9" x2="31" transform="translate(152.5 1436.5)"/>
    <line id="Line_11" data-name="Line 11" class="cls-9" x2="31" transform="translate(222.5 1436.5)"/>
    <text id="DEPARTS" class="cls-4" transform="translate(47 1581.367)"><tspan x="24.817" y="8">DEPARTS</tspan></text>
    <text id="_9.45P" data-name="9.45P" class="cls-8" transform="translate(47 1599.367)"><tspan x="32.099" y="11">9.45P</tspan></text>
    <path id="Rectangle_1521" data-name="Rectangle 1521" class="cls-10" d="M0,0H164a2,2,0,0,1,2,2V32a0,0,0,0,1,0,0H0a0,0,0,0,1,0,0V0A0,0,0,0,1,0,0Z" transform="translate(200 1362)"/>
    <g id="Boarding_Sign-2" data-name="Boarding Sign" transform="translate(187 1181.868)">
      <text id="GATE_CLOSES_AT_9.15" data-name="GATE CLOSES AT 9.15" class="cls-5" transform="translate(24 190.132)"><tspan x="11.823" y="8">GATE CLOSES AT 9.15</tspan></text>
    </g>
    <rect id="Normal_Button_Background" data-name="Normal Button Background" class="cls-11" width="180" height="46" rx="2" transform="translate(168 1578)"/>
    <text id="GENERATE_BOARDING_PASS" data-name="GENERATE BOARDING PASS" class="cls-12" transform="translate(168 1595)"><tspan x="9.944" y="8">GENERATE BOARDING PASS</tspan></text>
  </g>
</svg>
